<svg width="203.079" height="203.079" xmlns="http://www.w3.org/2000/svg" xml:space="preserve" version="1.1" fill="#F8FDF2">
  <path id="svg_1" d="m192.231,104.082l0,-2.082c0,-12.407 -10.094,-22.5 -22.5,-22.5c-2.802,0 -5.484,0.519 -7.961,1.459c-2.105,-10.237 -11.187,-17.959 -22.039,-17.959c-2.947,0 -5.76,0.575 -8.341,1.61c-2.723,-9.448 -11.766,-16.61 -22.159,-16.61c-2.798,0 -5.496,0.541 -8,1.516l0,-27.016c0,-12.407 -10.094,-22.5 -22.5,-22.5s-22.5,10.093 -22.5,22.5l0,66.259c-3.938,-5.029 -8.673,-9.412 -14.169,-11.671c-6.133,-2.52 -12.587,-2.219 -18.667,0.872c-11.182,5.686 -15.792,19.389 -10.277,30.548l27.95,56.563c0.79,1.552 19.731,38.008 54.023,38.008l40,0c31.54,0 57.199,-25.794 57.199,-57.506l-0.031,-41.491l-0.028,0zm-57.139,83.997l-40,0c-24.702,0 -40.091,-28.738 -40.646,-29.796l-27.88,-56.42c-1.924,-3.893 -0.33,-8.519 3.629,-10.532c2.182,-1.11 4.081,-1.223 6.158,-0.372c8.281,3.395 16.41,19.756 19.586,29.265l2.41,7.259l12.883,-4.559l0,-100.424c0,-4.136 3.364,-7.5 7.5,-7.5s7.5,3.364 7.5,7.5l0,86.5l0.136,0l14.864,0l0.136,0l0,-38c0,-4.187 3.748,-8 7.864,-8c4.262,0 8,3.505 8,7.5l0,15l0,26l15,0l0,-26c0,-4.136 3.364,-7.5 7.5,-7.5s7.5,3.364 7.5,7.5l0,16.5l0,16.5l15,0l0,-16.5c0,-4.136 3.364,-7.5 7.5,-7.5s7.5,3.364 7.5,7.5l0,10.727l0.035,0l0.025,32.852c-0.001,23.435 -18.932,42.5 -42.2,42.5z"/>
</svg>