<svg width="1073" height="1650" xmlns="http://www.w3.org/2000/svg">
    <path id="svg_1" fill="#e7e3ef"
        d="m542.57297,6.89153c9.37658,4.92883 15.74971,18.51462 20.43359,26.83569l492.23442,824.86744c1.3324,2.39335 2.7281,4.63931 4.2343,6.92187c9.3023,14.29738 9.3023,14.29738 8.5742,23.26953c-2.4426,7.93667 -7.4525,14.49711 -12.2783,21.16406c-122.8819,177.43647 -74.738,108.46997 -495.35501,710.79777c-11.34573,18.5843 -15.67837,20.3476 -23.54203,22.5843c-3.14141,-0.5641 -3.73552,-1.0479 -6.51738,-2.7544c-10.26835,-9.8593 -17.68637,-21.5362 -25.90488,-33.0847c-322.36048,-465.4736 -337.81455,-493.7387 -494.65924,-715.71145c-2.36267,-11.17182 0.73613,-17.62789 6.72174,-27.03855c1.84099,-2.81167 3.70218,-5.60826 5.57666,-8.3977c201.96931,-329.09974 206.9517,-335.40383 498.1958,-827.54663c12.85435,-22.49769 12.85435,-22.49769 22.28613,-21.90723z" />
    <path id="svg_2" fill="#afcef8"
        d="m537.54373,772.7519l-0.65435,868.80369l0.0199,1.8912l-2.43783,-0.3204c-6.53383,-2.4487 -12.11472,-9.6951 -16.26953,-15.8829c-457.78139,-653.20152 -287.01661,-410.0649 -505.68507,-731.12095c-1.46018,-2.60326 -2.06305,-2.12731 -2.72266,-3.78906c-0.83472,-3.8071 -0.70643,-5.0661 -0.67653,-7.76169c157.69258,-32.50958 375.57193,-77.74096 528.42607,-111.81989z" />
    <path stroke="null" id="svg_3" fill="#fafcf7"
        d="m539.03346,6.38587c6.63391,0.85177 9.8936,3.74803 14.28815,8.72894c171.72927,281.06158 337.09217,568.3267 505.67327,849.83922c4.4304,7.17241 9.6904,12.33782 9.6221,20.94694c-172.2501,-35.15487 -348.2902,-73.08565 -521.91837,-110.65756c-1.9252,-0.39595 -3.56833,-0.83381 -5.49469,-1.22407c-2.0314,-0.51094 -2.31454,-0.46375 -3.31454,-1.46375c-0.0977,-1.73202 -0.1241,-3.46809 -0.12362,-5.20286c-0.005,-2.6865 0.008,-27.97882 0.009,-35.3433c0.18447,-240.81814 0.81497,-484.80575 1.2587,-725.62356z" />
</svg>